<?xml version="1.0" encoding="utf-8"?>
<!-- Generator: Adobe Illustrator 19.1.0, SVG Export Plug-In . SVG Version: 6.00 Build 0)  -->
<svg version="1.1" xmlns="http://www.w3.org/2000/svg" xmlns:xlink="http://www.w3.org/1999/xlink" x="0px" y="0px" width="24px"
	 height="24px" viewBox="0 0 24 24" enable-background="new 0 0 24 24" xml:space="preserve">
<g id="Bounding_Boxes">
	<path fill="none" d="M0,0h24v24H0V0z"/>
</g>
<g id="Rounded">
	<path fill="white" d="M19.65,9.04l-4.84-0.42l-1.89-4.45c-0.34-0.81-1.5-0.81-1.84,0L9.19,8.63L4.36,9.04c-0.88,0.07-1.24,1.17-0.57,1.75
		l3.67,3.18l-1.1,4.72c-0.2,0.86,0.73,1.54,1.49,1.08L12,17.27l4.15,2.51c0.76,0.46,1.69-0.22,1.49-1.08l-1.1-4.73l3.67-3.18
		C20.88,10.21,20.53,9.11,19.65,9.04z M12,15.4l-3.76,2.27l1-4.28l-3.32-2.88l4.38-0.38L12,6.1l1.71,4.04l4.38,0.38l-3.32,2.88
		l1,4.28L12,15.4z"/>
</g>
</svg>
