<?xml version="1.0" encoding="utf-8"?>
<!-- Generator: Adobe Illustrator 19.1.0, SVG Export Plug-In . SVG Version: 6.00 Build 0)  -->
<svg version="1.1" xmlns="http://www.w3.org/2000/svg" xmlns:xlink="http://www.w3.org/1999/xlink" x="0px" y="0px" width="24px"
	 height="24px" viewBox="0 0 24 24" enable-background="new 0 0 24 24" xml:space="preserve">
<g id="Bounding_Boxes">
	<path fill="none" d="M0,0h24v24H0V0z"/>
</g>
<g id="Rounded">
	<path fill="white" d="M17.65,6.35c-1.63-1.63-3.94-2.57-6.48-2.31c-3.67,0.37-6.69,3.35-7.1,7.02C3.52,15.91,7.27,20,12,20
		c3.19,0,5.93-1.87,7.21-4.56c0.32-0.67-0.16-1.44-0.9-1.44h0c-0.37,0-0.72,0.2-0.88,0.53c-1.13,2.43-3.84,3.97-6.8,3.31
		c-2.22-0.49-4.01-2.3-4.48-4.52C5.31,9.44,8.26,6,12,6c1.66,0,3.14,0.69,4.22,1.78l-1.51,1.51C14.08,9.92,14.52,11,15.41,11H19
		c0.55,0,1-0.45,1-1V6.41c0-0.89-1.08-1.34-1.71-0.71L17.65,6.35z"/>
</g>
</svg>
