<?xml version="1.0" encoding="UTF-8" standalone="no"?>
<svg width="494px" height="385px" viewBox="0 0 494 385" version="1.1" xmlns="http://www.w3.org/2000/svg" xmlns:xlink="http://www.w3.org/1999/xlink" xmlns:sketch="http://www.bohemiancoding.com/sketch/ns">
    <!-- Generator: Sketch 3.2.2 (9983) - http://www.bohemiancoding.com/sketch -->
    <title>Slice 1</title>
    <desc>Created with Sketch.</desc>
    <defs></defs>
    <g id="Page-1" stroke="none" stroke-width="1" fill="none" fill-rule="evenodd" sketch:type="MSPage">
        <path d="M436.494108,295.007039 C421.535399,271.737381 404.622225,245.427371 386.990764,218 L386.990764,218 L106.711739,218 L57.2129203,295 L436.489583,295 Z M438.418108,298 C470.905361,348.536932 493.702503,384 493.702503,384 L0,384 L55.2843949,298 L438.418108,298 Z M385.063247,215.001569 C368.812144,189.721471 351.992306,163.556654 335.563419,137.999999 L335.56342,138 L158.139083,138 L108.640264,215 L385.062239,215 L385.063247,215.001569 Z M333.590003,134.930166 C306.843074,93.3228389 281.238887,53.4931533 260.943606,21.9219638 C256.246155,14.6146425 246.851252,0 246.851252,0 L160.067609,135 L333.634895,135 L333.590003,134.930166 Z" id="Triangle-1" fill="#49C0D0" sketch:type="MSShapeGroup"></path>
        <path d="M214.706524,103.318 L213.346524,116 L208.212524,116 L205.560524,92.2 L209.198524,92.2 L211.204524,110.968 L213.006524,92.2 L216.610524,92.2 L218.480524,111.104 L220.418524,92.2 L223.682524,92.2 L221.030524,116 L216.066524,116 L214.706524,103.318 Z M225.552524,92.2 L229.292524,92.2 L229.292524,116 L225.552524,116 L225.552524,92.2 Z M231.536524,97.912 C231.536524,95.9853237 231.99552,94.5063385 232.913524,93.475 C233.831529,92.4436615 235.208515,91.928 237.044524,91.928 C238.880533,91.928 240.25752,92.4436615 241.175524,93.475 C242.093529,94.5063385 242.552524,95.9853237 242.552524,97.912 L242.552524,98.66 L239.016524,98.66 L239.016524,97.674 C239.016524,96.8126624 238.852193,96.2063351 238.523524,95.855 C238.194856,95.5036649 237.73586,95.328 237.146524,95.328 C236.557188,95.328 236.098193,95.5036649 235.769524,95.855 C235.440856,96.2063351 235.276524,96.8126624 235.276524,97.674 C235.276524,98.4900041 235.457856,99.2096636 235.820524,99.833 C236.183193,100.456336 236.636521,101.045664 237.180524,101.601 C237.724527,102.156336 238.308188,102.711664 238.931524,103.267 C239.554861,103.822336 240.138521,104.428663 240.682524,105.086 C241.226527,105.743337 241.679856,106.491329 242.042524,107.33 C242.405193,108.168671 242.586524,109.154661 242.586524,110.288 C242.586524,112.214676 242.116196,113.693662 241.175524,114.725 C240.234853,115.756338 238.846533,116.272 237.010524,116.272 C235.174515,116.272 233.786196,115.756338 232.845524,114.725 C231.904853,113.693662 231.434524,112.214676 231.434524,110.288 L231.434524,108.826 L234.970524,108.826 L234.970524,110.526 C234.970524,111.387338 235.146189,111.987998 235.497524,112.328 C235.848859,112.668002 236.319188,112.838 236.908524,112.838 C237.49786,112.838 237.968189,112.668002 238.319524,112.328 C238.670859,111.987998 238.846524,111.387338 238.846524,110.526 C238.846524,109.709996 238.665193,108.990336 238.302524,108.367 C237.939856,107.743664 237.486527,107.154336 236.942524,106.599 C236.398521,106.043664 235.814861,105.488336 235.191524,104.933 C234.568188,104.377664 233.984527,103.771337 233.440524,103.114 C232.896521,102.456663 232.443193,101.708671 232.080524,100.87 C231.717856,100.031329 231.536524,99.045339 231.536524,97.912 L231.536524,97.912 Z M244.728524,92.2 L250.644524,92.2 C252.525867,92.2 253.92552,92.6986617 254.843524,93.696 C255.761529,94.6933383 256.220524,96.1553237 256.220524,98.082 L256.220524,110.118 C256.220524,112.044676 255.761529,113.506662 254.843524,114.504 C253.92552,115.501338 252.525867,116 250.644524,116 L244.728524,116 L244.728524,92.2 Z M248.468524,95.6 L248.468524,112.6 L250.576524,112.6 C251.16586,112.6 251.630523,112.430002 251.970524,112.09 C252.310526,111.749998 252.480524,111.149338 252.480524,110.288 L252.480524,97.912 C252.480524,97.0506624 252.310526,96.4500017 251.970524,96.11 C251.630523,95.7699983 251.16586,95.6 250.576524,95.6 L248.468524,95.6 Z M262.034524,110.526 C262.034524,111.387338 262.210189,111.993665 262.561524,112.345 C262.912859,112.696335 263.383188,112.872 263.972524,112.872 C264.56186,112.872 265.032189,112.696335 265.383524,112.345 C265.734859,111.993665 265.910524,111.387338 265.910524,110.526 L265.910524,97.674 C265.910524,96.8126624 265.734859,96.2063351 265.383524,95.855 C265.032189,95.5036649 264.56186,95.328 263.972524,95.328 C263.383188,95.328 262.912859,95.5036649 262.561524,95.855 C262.210189,96.2063351 262.034524,96.8126624 262.034524,97.674 L262.034524,110.526 Z M258.294524,97.912 C258.294524,95.9853237 258.781853,94.5063385 259.756524,93.475 C260.731196,92.4436615 262.136515,91.928 263.972524,91.928 C265.808533,91.928 267.213853,92.4436615 268.188524,93.475 C269.163196,94.5063385 269.650524,95.9853237 269.650524,97.912 L269.650524,110.288 C269.650524,112.214676 269.163196,113.693662 268.188524,114.725 C267.213853,115.756338 265.808533,116.272 263.972524,116.272 C262.136515,116.272 260.731196,115.756338 259.756524,114.725 C258.781853,113.693662 258.294524,112.214676 258.294524,110.288 L258.294524,97.912 Z M279.986524,109.098 L282.536524,92.2 L287.738524,92.2 L287.738524,116 L284.202524,116 L284.202524,98.932 L281.618524,116 L278.082524,116 L275.294524,99.17 L275.294524,116 L272.030524,116 L272.030524,92.2 L277.232524,92.2 L279.986524,109.098 Z" id="WISDOM" fill="#FFFFFF" sketch:type="MSShapeGroup"></path>
        <path d="M184.402123,181.398 L183.110123,183.83 L183.110123,192 L178.930123,192 L178.930123,165.4 L183.110123,165.4 L183.110123,176.99 L188.582123,165.4 L192.762123,165.4 L186.948123,177.256 L192.762123,192 L188.468123,192 L184.402123,181.398 Z M198.386123,172.734 L198.386123,192 L194.624123,192 L194.624123,165.4 L199.868123,165.4 L204.162123,181.322 L204.162123,165.4 L207.886123,165.4 L207.886123,192 L203.592123,192 L198.386123,172.734 Z M214.726123,185.882 C214.726123,186.844671 214.922454,187.522331 215.315123,187.915 C215.707791,188.307669 216.233453,188.504 216.892123,188.504 C217.550793,188.504 218.076454,188.307669 218.469123,187.915 C218.861791,187.522331 219.058123,186.844671 219.058123,185.882 L219.058123,171.518 C219.058123,170.555329 218.861791,169.877669 218.469123,169.485 C218.076454,169.092331 217.550793,168.896 216.892123,168.896 C216.233453,168.896 215.707791,169.092331 215.315123,169.485 C214.922454,169.877669 214.726123,170.555329 214.726123,171.518 L214.726123,185.882 Z M210.546123,171.784 C210.546123,169.630656 211.090784,167.977672 212.180123,166.825 C213.269462,165.672328 214.840112,165.096 216.892123,165.096 C218.944133,165.096 220.514784,165.672328 221.604123,166.825 C222.693462,167.977672 223.238123,169.630656 223.238123,171.784 L223.238123,185.616 C223.238123,187.769344 222.693462,189.422328 221.604123,190.575 C220.514784,191.727672 218.944133,192.304 216.892123,192.304 C214.840112,192.304 213.269462,191.727672 212.180123,190.575 C211.090784,189.422328 210.546123,187.769344 210.546123,185.616 L210.546123,171.784 Z M235.208123,177.826 L233.688123,192 L227.950123,192 L224.986123,165.4 L229.052123,165.4 L231.294123,186.376 L233.308123,165.4 L237.336123,165.4 L239.426123,186.528 L241.592123,165.4 L245.240123,165.4 L242.276123,192 L236.728123,192 L235.208123,177.826 Z M247.330123,165.4 L251.510123,165.4 L251.510123,188.2 L258.388123,188.2 L258.388123,192 L247.330123,192 L247.330123,165.4 Z M264.392123,176.61 L270.130123,176.61 L270.130123,180.41 L264.392123,180.41 L264.392123,188.2 L271.612123,188.2 L271.612123,192 L260.212123,192 L260.212123,165.4 L271.612123,165.4 L271.612123,169.2 L264.392123,169.2 L264.392123,176.61 Z M274.196123,165.4 L280.808123,165.4 C282.9108,165.4 284.475118,165.957328 285.501123,167.072 C286.527128,168.186672 287.040123,169.820656 287.040123,171.974 L287.040123,185.426 C287.040123,187.579344 286.527128,189.213328 285.501123,190.328 C284.475118,191.442672 282.9108,192 280.808123,192 L274.196123,192 L274.196123,165.4 Z M278.376123,169.2 L278.376123,188.2 L280.732123,188.2 C281.390793,188.2 281.910121,188.010002 282.290123,187.63 C282.670125,187.249998 282.860123,186.578671 282.860123,185.616 L282.860123,171.784 C282.860123,170.821329 282.670125,170.150002 282.290123,169.77 C281.910121,169.389998 281.390793,169.2 280.732123,169.2 L278.376123,169.2 Z M295.970123,177.18 L301.822123,177.18 L301.822123,185.616 C301.822123,187.769344 301.296461,189.422328 300.245123,190.575 C299.193784,191.727672 297.642133,192.304 295.590123,192.304 C293.538112,192.304 291.986461,191.727672 290.935123,190.575 C289.883784,189.422328 289.358123,187.769344 289.358123,185.616 L289.358123,171.784 C289.358123,169.630656 289.883784,167.977672 290.935123,166.825 C291.986461,165.672328 293.538112,165.096 295.590123,165.096 C297.642133,165.096 299.193784,165.672328 300.245123,166.825 C301.296461,167.977672 301.822123,169.630656 301.822123,171.784 L301.822123,174.368 L297.870123,174.368 L297.870123,171.518 C297.870123,170.555329 297.673791,169.877669 297.281123,169.485 C296.888454,169.092331 296.362793,168.896 295.704123,168.896 C295.045453,168.896 294.519791,169.092331 294.127123,169.485 C293.734454,169.877669 293.538123,170.555329 293.538123,171.518 L293.538123,185.882 C293.538123,186.844671 293.734454,187.515998 294.127123,187.896 C294.519791,188.276002 295.045453,188.466 295.704123,188.466 C296.362793,188.466 296.888454,188.276002 297.281123,187.896 C297.673791,187.515998 297.870123,186.844671 297.870123,185.882 L297.870123,180.98 L295.970123,180.98 L295.970123,177.18 Z M308.700123,176.61 L314.438123,176.61 L314.438123,180.41 L308.700123,180.41 L308.700123,188.2 L315.920123,188.2 L315.920123,192 L304.520123,192 L304.520123,165.4 L315.920123,165.4 L315.920123,169.2 L308.700123,169.2 L308.700123,176.61 Z" id="KNOWLEDGE" fill="#FFFFFF" sketch:type="MSShapeGroup"></path>
        <path d="M162.708258,241.6 L167.328258,241.6 L167.328258,271 L162.708258,271 L162.708258,241.6 Z M174.804258,249.706 L174.804258,271 L170.646258,271 L170.646258,241.6 L176.442258,241.6 L181.188258,259.198 L181.188258,241.6 L185.304258,241.6 L185.304258,271 L180.558258,271 L174.804258,249.706 Z M193.242258,254.662 L199.206258,254.662 L199.206258,258.862 L193.242258,258.862 L193.242258,271 L188.622258,271 L188.622258,241.6 L200.844258,241.6 L200.844258,245.8 L193.242258,245.8 L193.242258,254.662 Z M207.312258,264.238 C207.312258,265.302005 207.529256,266.050998 207.963258,266.485 C208.39726,266.919002 208.978254,267.136 209.706258,267.136 C210.434262,267.136 211.015256,266.919002 211.449258,266.485 C211.88326,266.050998 212.100258,265.302005 212.100258,264.238 L212.100258,248.362 C212.100258,247.297995 211.88326,246.549002 211.449258,246.115 C211.015256,245.680998 210.434262,245.464 209.706258,245.464 C208.978254,245.464 208.39726,245.680998 207.963258,246.115 C207.529256,246.549002 207.312258,247.297995 207.312258,248.362 L207.312258,264.238 Z M202.692258,248.656 C202.692258,246.275988 203.294252,244.449006 204.498258,243.175 C205.702264,241.900994 207.438247,241.264 209.706258,241.264 C211.974269,241.264 213.710252,241.900994 214.914258,243.175 C216.118264,244.449006 216.720258,246.275988 216.720258,248.656 L216.720258,263.944 C216.720258,266.324012 216.118264,268.150994 214.914258,269.425 C213.710252,270.699006 211.974269,271.336 209.706258,271.336 C207.438247,271.336 205.702264,270.699006 204.498258,269.425 C203.294252,268.150994 202.692258,266.324012 202.692258,263.944 L202.692258,248.656 Z M229.362258,271 C229.306258,270.803999 229.250258,270.622001 229.194258,270.454 C229.138258,270.285999 229.089258,270.076001 229.047258,269.824 C229.005258,269.571999 228.977258,269.250002 228.963258,268.858 C228.949258,268.465998 228.942258,267.976003 228.942258,267.388 L228.942258,262.768 C228.942258,261.395993 228.70426,260.430003 228.228258,259.87 C227.752256,259.309997 226.982263,259.03 225.918258,259.03 L224.322258,259.03 L224.322258,271 L219.702258,271 L219.702258,241.6 L226.674258,241.6 C229.08227,241.6 230.825253,242.159994 231.903258,243.28 C232.981263,244.400006 233.520258,246.093989 233.520258,248.362 L233.520258,250.672 C233.520258,253.696015 232.512268,255.683995 230.496258,256.636 C231.672264,257.112002 232.477256,257.888995 232.911258,258.967 C233.34526,260.045005 233.562258,261.353992 233.562258,262.894 L233.562258,267.43 C233.562258,268.158004 233.590258,268.794997 233.646258,269.341 C233.702258,269.887003 233.842257,270.439997 234.066258,271 L229.362258,271 Z M224.322258,245.8 L224.322258,254.83 L226.128258,254.83 C226.996262,254.83 227.675256,254.606002 228.165258,254.158 C228.65526,253.709998 228.900258,252.898006 228.900258,251.722 L228.900258,248.824 C228.900258,247.759995 228.71126,246.990002 228.333258,246.514 C227.955256,246.037998 227.360262,245.8 226.548258,245.8 L224.322258,245.8 Z M246.372258,262.474 L249.522258,241.6 L255.948258,241.6 L255.948258,271 L251.580258,271 L251.580258,249.916 L248.388258,271 L244.020258,271 L240.576258,250.21 L240.576258,271 L236.544258,271 L236.544258,241.6 L242.970258,241.6 L246.372258,262.474 Z M274.260258,271 L269.598258,271 L268.800258,265.666 L263.130258,265.666 L262.332258,271 L258.090258,271 L262.794258,241.6 L269.556258,241.6 L274.260258,271 Z M263.718258,261.676 L268.170258,261.676 L265.944258,246.808 L263.718258,261.676 Z M275.058258,241.6 L289.338258,241.6 L289.338258,245.8 L284.508258,245.8 L284.508258,271 L279.888258,271 L279.888258,245.8 L275.058258,245.8 L275.058258,241.6 Z M291.354258,241.6 L295.974258,241.6 L295.974258,271 L291.354258,271 L291.354258,241.6 Z M303.576258,264.238 C303.576258,265.302005 303.793256,266.050998 304.227258,266.485 C304.66126,266.919002 305.242254,267.136 305.970258,267.136 C306.698262,267.136 307.279256,266.919002 307.713258,266.485 C308.14726,266.050998 308.364258,265.302005 308.364258,264.238 L308.364258,248.362 C308.364258,247.297995 308.14726,246.549002 307.713258,246.115 C307.279256,245.680998 306.698262,245.464 305.970258,245.464 C305.242254,245.464 304.66126,245.680998 304.227258,246.115 C303.793256,246.549002 303.576258,247.297995 303.576258,248.362 L303.576258,264.238 Z M298.956258,248.656 C298.956258,246.275988 299.558252,244.449006 300.762258,243.175 C301.966264,241.900994 303.702247,241.264 305.970258,241.264 C308.238269,241.264 309.974252,241.900994 311.178258,243.175 C312.382264,244.449006 312.984258,246.275988 312.984258,248.656 L312.984258,263.944 C312.984258,266.324012 312.382264,268.150994 311.178258,269.425 C309.974252,270.699006 308.238269,271.336 305.970258,271.336 C303.702247,271.336 301.966264,270.699006 300.762258,269.425 C299.558252,268.150994 298.956258,266.324012 298.956258,263.944 L298.956258,248.656 Z M320.082258,249.706 L320.082258,271 L315.924258,271 L315.924258,241.6 L321.720258,241.6 L326.466258,259.198 L326.466258,241.6 L330.582258,241.6 L330.582258,271 L325.836258,271 L320.082258,249.706 Z" id="INFORMATION" fill="#FFFFFF" sketch:type="MSShapeGroup"></path>
        <path d="M212.046,322.8 L220.05,322.8 C222.595346,322.8 224.488994,323.47466 225.731,324.824 C226.973006,326.17334 227.594,328.15132 227.594,330.758 L227.594,347.042 C227.594,349.64868 226.973006,351.62666 225.731,352.976 C224.488994,354.32534 222.595346,355 220.05,355 L212.046,355 L212.046,322.8 Z M217.106,327.4 L217.106,350.4 L219.958,350.4 C220.755337,350.4 221.383998,350.170002 221.844,349.71 C222.304002,349.249998 222.534,348.437339 222.534,347.272 L222.534,330.528 C222.534,329.362661 222.304002,328.550002 221.844,328.09 C221.383998,327.629998 220.755337,327.4 219.958,327.4 L217.106,327.4 Z M247.19,355 L242.084,355 L241.21,349.158 L235,349.158 L234.126,355 L229.48,355 L234.632,322.8 L242.038,322.8 L247.19,355 Z M235.644,344.788 L240.52,344.788 L238.082,328.504 L235.644,344.788 Z M248.064,322.8 L263.704,322.8 L263.704,327.4 L258.414,327.4 L258.414,355 L253.354,355 L253.354,327.4 L248.064,327.4 L248.064,322.8 Z M282.288,355 L277.182,355 L276.308,349.158 L270.098,349.158 L269.224,355 L264.578,355 L269.73,322.8 L277.136,322.8 L282.288,355 Z M270.742,344.788 L275.618,344.788 L273.18,328.504 L270.742,344.788 Z" id="DATA" fill="#FFFFFF" sketch:type="MSShapeGroup"></path>
    </g>
</svg>