<?xml version="1.0" encoding="utf-8"?>
<!-- Generator: Adobe Illustrator 21.1.0, SVG Export Plug-In . SVG Version: 6.00 Build 0)  -->
<svg version="1.1" id="Layer_1" xmlns="http://www.w3.org/2000/svg" xmlns:xlink="http://www.w3.org/1999/xlink" x="0px" y="0px"
	 viewBox="0 0 1600 689" style="enable-background:new 0 0 1600 689;" xml:space="preserve">
<style type="text/css">
	.st0{fill:url(#SVGID_1_);}
	.st1{fill:#7E6CFF;}
	.st2{fill:#8888FF;}
</style>
<g id="Color_on_Purple">
	<g>
		
			<linearGradient id="SVGID_1_" gradientUnits="userSpaceOnUse" x1="88.387" y1="337.5724" x2="381.1483" y2="337.5724" gradientTransform="matrix(1 0 0 -1 0 690)">
			<stop  offset="0" style="stop-color:#7F68FC"/>
			<stop  offset="0.2771" style="stop-color:#9084FC"/>
			<stop  offset="1" style="stop-color:#A197FD"/>
		</linearGradient>
		<path class="st0" d="M124.9,498.4c-12.7-3.1-24-11.4-30.3-22.8c-4.3-7.5-6.4-16.1-6.2-24.7c0-66.4,0-132.7,0-199.1
			c0.1-18.9,12.8-36.8,30.5-43.3c5.8-2.3,12.1-3.1,18.3-3.1c60.7,0,121.3,0,182,0c9.4,0.2,19.1-0.9,28.2,2
			c20,5.7,34.5,25.7,33.7,46.4c0,62,0,124,0,186c-0.1,9,0.8,18.2-2.3,26.9c-5.8,18.6-24,32.6-43.6,32.8c-43.7,0-87.4,0-131,0
			c0-23.4,0-46.9,0-70.3c33.3,0,66.7,0,100,0c6,0.2,12.3-0.1,17.9-2.5c13.2-5.1,22.5-18.7,22.6-32.8c0-16,0-32,0-48
			c0-9.4-3.7-18.6-10.2-25.3c-6.8-7.1-16.5-11-26.3-10.8c-44.8,0-89.6,0-134.4,0c0-13,0-26,0-39.1c5.2-2.8,9.5-7.3,11.2-13
			c2.7-8.3-0.3-18-7.2-23.3c-7-5.6-17.5-6-24.9-0.9c-7.2,4.7-11,13.9-9.1,22.2c1.3,6.5,5.9,12,11.7,15c0,13.1,0,26.2,0,39.2
			c-9.4,1.4-18.3,6.4-24,14.1c-5.4,7-6.6,15.9-6.6,24.7"/>
		<g>
			<path class="st1" d="M1355.8,285.2c0.6-2.2,1.6-5,4.2-5.6c5.4-0.3,10.8-0.1,16.2-0.1c2.8-0.4,4.8,2.1,5.4,4.6
				c13,43.3,26,86.7,39,130c1.1,4.5,3.3,8.8,3.4,13.5c0.2,2.1-2.5,2.5-4,2.5c-5,0-9.9,0.1-14.9,0c-2.3-0.1-3.8-2.3-4.3-4.3
				c-3.4-11.3-6.8-22.6-10.2-33.9c-15.1,0-30.1,0-45.1,0c-3.4,11.5-6.8,23-10.2,34.5c-0.6,2-2.4,3.7-4.5,3.7c-4,0.2-8,0-11.9,0.1
				c-1.8,0-4.2,0.1-5.2-1.7c-0.4-1.7,0.2-3.4,0.6-5C1328.1,377.4,1342,331.3,1355.8,285.2z M1361.3,339.1
				c-3.6,11.5-7.1,23-10.6,34.4c11.6,0,23.3,0,34.9,0c-3.6-11.9-7.2-23.8-10.9-35.7c-3.4-10.2-4.7-21-6.5-31.5
				C1366.7,317.3,1364.9,328.4,1361.3,339.1z"/>
		</g>
		<path class="st1" d="M1472.2,279.9c5.8-0.7,11.9-0.3,17.8-0.2c2.4,0.1,3,2.9,2.8,4.8c0,47,0,94.1,0,141.1c0.3,2-0.9,4.3-3.1,4.5
			c-5.2,0.2-10.4,0.1-15.6,0c-2.5,0.2-3.9-2.3-3.8-4.5c0-47,0-94.1,0-141.1C1470.3,282.8,1470.7,280.8,1472.2,279.9z"/>
		<path class="st2" d="M197.4,344.1c13-4.2,28,3.8,32.3,16.7c4.9,12.6-1.2,28.3-13.6,34c-7.6,3.7-17,3.4-24.3-0.9
			c-8.8-5-14.2-15.2-13.5-25.3C178.8,357.4,186.8,347.1,197.4,344.1z"/>
		<path class="st2" d="M275.5,344.2c14.1-4.9,30.5,4.8,33.6,19.3c3.9,14.1-5.6,30.3-20.1,33.1c-13.8,3.5-28.7-6.5-31.5-20.3
			C254.1,363.1,262.3,348.2,275.5,344.2z"/>
		<path class="st1" d="M1251.3,403c5.2-0.3,10.3-0.2,15.5-0.1c2.5-0.2,3.9,2.3,3.8,4.5c0,6.3,0.1,12.6,0,18.9c0.1,2-1.7,3.8-3.7,3.7
			c-4.9,0.1-9.9,0.1-14.8,0c-2,0.1-4.1-1.5-3.9-3.6c-0.1-6.3-0.1-12.7,0-19C1248,405.4,1249.1,403.2,1251.3,403z"/>
		<g>
			<path class="st1" d="M508.4,284.9c12.4-7.1,27.2-7.5,41.1-7.1c11.9,0.8,24.6,3.1,33.5,11.6c7,6.7,9.1,16.8,8.5,26.1
				c-0.5,3.5,1.4,8.3-2,10.7c-5.2,0.6-10.5,0.2-15.7,0.2c-1.9,0.2-3.9-0.9-4.1-3c-0.6-5.5,0.7-11.5-2.1-16.6
				c-3.4-6.4-10.9-8.6-17.5-9.4c-8.4-0.8-17.3-0.7-25,3c-5.6,2.6-8.7,8.9-8.4,15c0,26.3,0,52.6,0,79c0,5,2,10.2,6.2,13.2
				c5.9,4.1,13.2,4.5,20.2,4.9c7.1-0.4,14.9-0.8,20.8-5.3c3.8-2.8,5.6-7.5,5.7-12.1c0.1-7.2,0-14.4,0-21.6
				c-8.9-0.1-17.8,0.1-26.7-0.1c-2.3,0.1-3.5-2.4-3.5-4.4c-0.1-3.9-0.3-7.8,0.1-11.6c0.1-2.2,2.3-3.4,4.3-3.3c14.4,0,28.7,0,43.1,0
				c2.1-0.2,4.5,1.1,4.5,3.4c0.1,13.7,0,27.3,0.1,41c0,9.7-4.4,19.5-12.6,24.9c-11.4,7.6-25.7,8.5-39.1,8.5
				c-12.9-0.5-27.1-2.2-37-11.4c-6.4-5.7-9.3-14.6-9-23c0.1-29.4,0-58.7,0-88C494.1,299.5,499.7,289.8,508.4,284.9z"/>
			<g>
				<path class="st1" d="M643.4,284.5c-0.2-2.2,0.9-5.2,3.6-4.9c16.7-0.1,33.4-0.1,50.1,0c11.8,0.4,24.4,2.4,34,9.8
					c6.9,5.2,10.9,13.5,11.3,22c0.2,8.4,0,16.8,0.1,25.2c0,7.1-2,14.4-6.6,19.9c-4.7,5.8-11.7,9.3-18.7,11.5
					c8.8,19.6,18,39,26.4,58.8c-0.3,0.6-0.8,1.8-1.1,2.4c-3.9,1.9-8.3,0.8-12.5,1.1c-3.1-0.2-7.5,1-9-2.6
					c-8.6-18.8-17-37.7-25.4-56.6c-9.9-0.1-19.8,0-29.7,0c0,18.5,0.1,37,0,55.6c0.2,2.1-1.8,3.7-3.8,3.6c-4.9,0-9.9,0.1-14.8,0
					c-2.5,0.2-3.9-2.4-3.7-4.6C643.3,378.5,643.4,331.5,643.4,284.5z M665.8,298.9c0,17.5,0,35.1,0,52.6c9.5-0.1,18.9,0.1,28.4-0.1
					c8-0.5,17.2-1.5,22.5-8.2c4.5-5.9,3-13.8,3.3-20.7c0.2-5.8-0.1-12.3-4.4-16.6c-5.4-5.5-13.6-6.6-21-6.9
					C685,298.8,675.4,298.9,665.8,298.9z"/>
			</g>
			<path class="st1" d="M826.8,285.1c0.6-2.5,2-5.7,5.1-5.6c5.4-0.1,10.8-0.1,16.2,0c2.5,0.1,3.9,2.6,4.5,4.8
				c13.4,44.7,26.8,89.3,40.2,134c0.8,3,2.2,5.9,2.1,9.1c0.2,2.1-2.4,2.6-4,2.6c-5,0-9.9,0.1-14.9,0c-2.3-0.1-3.8-2.3-4.3-4.3
				c-5.4-17.9-10.7-35.8-15.5-53.8c-3.7-12.9-11.8-44.5-16.7-67c-4.8,20.6-6.3,27.6-15.7,61.4c-4.3,15.5-4.7,16.4-7.9,27.2
				c-3.2,11-6.4,21.9-9.7,32.9c-0.6,2-2.4,3.6-4.5,3.7c-4.6,0.1-9.2,0.1-13.8,0c-1.5,0-3.7-0.9-3.5-2.7c0.1-2.9,1.3-5.6,2.1-8.4
				C800,374.4,813.5,329.8,826.8,285.1z"/>
			<path class="st1" d="M941.9,280.7c1.2-1.4,3.3-1.1,5-1.2c4.7,0.1,9.5-0.2,14.2,0.2c2.2,0.3,2.8,2.9,2.7,4.8c0,20.7,0,41.4,0,62
				c1.4,0,2.7,0,4.1,0c15-20.7,30.1-41.3,45.1-62c1.8-2.2,3.8-4.8,6.9-4.9c5-0.1,10.1,0,15.2,0c1.4-0.2,2.8,0.2,3.6,1.5
				c0.3,1.9-1,3.6-1.9,5.2c-16.5,22.5-32.8,45-49.3,67.4c15.1,19.1,30.1,38.2,45.2,57.3c4,5.6,9.2,10.5,12.3,16.7
				c-0.9,1-1.5,2.8-3.2,2.5c-5.9,0.1-11.9,0-17.8,0.1c-2.6,0.2-4.7-1.5-6.1-3.4c-16.6-21.1-33.1-42.2-49.7-63.2c-1.5,0-2.9,0-4.3,0
				c0,20.7,0,41.4,0,62.1c0.2,1.9-1,4.2-3.1,4.4c-5.2,0.2-10.4,0.1-15.6,0.1c-2.5,0.2-4.2-2.2-4-4.5c0-46,0-92.1,0-138.1
				C941.2,285.2,940.8,282.8,941.9,280.7z"/>
			<path class="st1" d="M1090.4,283.5c-0.2-2,1.4-4.2,3.5-3.9c5,0,10-0.2,14.9,0.1c1.7,0.1,2.3,1.8,3.1,3
				c15.1,26.6,30.2,53.1,45.3,79.6c4.2,7.7,9.1,15.1,12.3,23.4c-0.2-34-0.1-68.1-0.1-102.1c0.1-5.7,6.9-3.8,10.6-4.1
				c3.5,0.5,9.7-1.8,10.6,3.2c0.1,47.9,0.1,95.8,0,143.7c-0.2,5-6.3,3.6-9.6,3.8c-3.7-0.5-8.9,1.5-11.3-2.3
				c-15.5-27.2-30.9-54.5-46.3-81.7c-4-7.4-8.7-14.4-11.7-22.3c0.2,33.9,0,67.8,0.1,101.6c0.4,2.2-1.3,4.7-3.7,4.5
				c-4.6,0.1-9.3,0.1-13.9,0c-2.4,0.1-4-2.3-3.7-4.5C1090.4,378.2,1090.3,330.8,1090.4,283.5z"/>
		</g>
	</g>
</g>
</svg>
