<?xml version="1.0" encoding="utf-8"?>
<!-- Generator: Adobe Illustrator 22.0.1, SVG Export Plug-In . SVG Version: 6.00 Build 0)  -->
<svg version="1.1" id="Layer_1" xmlns="http://www.w3.org/2000/svg" xmlns:xlink="http://www.w3.org/1999/xlink" x="0px" y="0px"
	 viewBox="0 0 166.9 35" style="enable-background:new 0 0 166.9 35;" xml:space="preserve">
<style type="text/css">
	.st0{fill:url(#SVGID_1_);}
	.st1{fill:#594F95;}
	.st2{fill:#594E93;}
	.st3{fill:#7F72D0;}
</style>
<linearGradient id="SVGID_1_" gradientUnits="userSpaceOnUse" x1="-8.111572e-02" y1="17.5" x2="34.7256" y2="17.5" gradientTransform="matrix(1 0 0 -1 0 35)">
	<stop  offset="0" style="stop-color:#7F68FC"/>
	<stop  offset="0.2771" style="stop-color:#9084FC"/>
	<stop  offset="1" style="stop-color:#A197FD"/>
</linearGradient>
<path class="st0" d="M28.2,0c-0.3,0-0.6,0-0.8,0H5.8C5.1,0,4.3,0.1,3.6,0.4C1.5,1.2,0,3.3,0,5.5c0,7.9,0,15.8,0,23.7
	c0,1,0.2,2.1,0.7,2.9c0.8,1.4,2.1,2.4,3.6,2.7V17c0-1,0.1-2.1,0.8-2.9c0.7-0.9,1.7-1.5,2.9-1.7V7.7c-0.7-0.4-1.2-1-1.4-1.8
	c-0.2-1,0.2-2.1,1.1-2.6c0.9-0.6,2.1-0.5,3,0.1c0.8,0.6,1.2,1.8,0.9,2.8c-0.2,0.7-0.7,1.2-1.3,1.5v4.7h16c1.2,0,2.3,0.4,3.1,1.3
	c0.8,0.8,1.2,1.9,1.2,3v5.7c0,1.7-1.1,3.3-2.7,3.9c-0.7,0.3-1.4,0.3-2.1,0.3H13.9V35h15.6c2.3,0,4.5-1.7,5.2-3.9
	c0.4-1,0.3-2.1,0.3-3.2V5.8c0.1-2.5-1.6-4.8-4-5.5c-0.7-0.2-1.3-0.2-2-0.2L28.2,0L28.2,0z"/>
<path class="st1" d="M151.1,8.8c-0.3,0.1-0.4,0.4-0.5,0.7c-1.6,5.5-3.3,11-4.9,16.5c0,0.2-0.1,0.4-0.1,0.6c0.1,0.2,0.4,0.2,0.6,0.2
	h0.6c0.3,0,0.5,0,0.8,0c0.2,0,0.5-0.2,0.5-0.4l1.2-4.1h5.4c0.4,1.4,0.8,2.7,1.2,4c0.1,0.2,0.2,0.5,0.5,0.5c0.6,0,1.2,0,1.8,0
	c0.2,0,0.5-0.1,0.5-0.3c0-0.6-0.3-1.1-0.4-1.6l-4.6-15.5c-0.1-0.3-0.3-0.6-0.6-0.5h-0.7h-0.5C151.6,8.8,151.4,8.8,151.1,8.8z
	 M151.2,15.9c0.4-1.3,0.6-2.6,0.8-3.9c0.2,1.2,0.4,2.5,0.8,3.8c0.4,1.4,0.9,2.8,1.3,4.2h-2.4h-1.8L151.2,15.9z"/>
<rect x="164.2" y="8.8" width="2.7" height="18"/>
<path class="st2" d="M164.4,8.9c-0.2,0.1-0.2,0.4-0.2,0.5v16.8c0,0.3,0.2,0.6,0.5,0.5c0.6,0,1.2,0,1.8,0c0.3,0,0.4-0.3,0.4-0.5V9.4
	c0-0.2,0-0.6-0.3-0.6c-0.4,0-0.8,0-1.2,0C165.1,8.8,164.7,8.8,164.4,8.9z"/>
<path class="st3" d="M12.9,16.5c-1.3,0.4-2.2,1.6-2.3,2.9c-0.1,1.2,0.6,2.4,1.6,3c0.9,0.5,2,0.5,2.9,0.1c1.5-0.7,2.2-2.5,1.6-4
	c-0.4-1.2-1.7-2.1-3-2.1C13.4,16.4,13.2,16.4,12.9,16.5z"/>
<path class="st3" d="M22.2,16.5c-1.6,0.5-2.5,2.2-2.1,3.8c0.3,1.6,2.1,2.8,3.8,2.4c1.7-0.3,2.8-2.3,2.4-3.9
	c-0.3-1.4-1.7-2.5-3.1-2.5C22.8,16.4,22.5,16.4,22.2,16.5z"/>
<rect x="137.8" y="23.5" width="2.7" height="3.3"/>
<path class="st2" d="M138.2,23.5c-0.3,0-0.4,0.3-0.4,0.5c0,0.8,0,1.5,0,2.3c0,0.2,0.2,0.4,0.5,0.4c0.6,0,1.2,0,1.8,0
	c0.2,0,0.5-0.2,0.4-0.4c0-0.8,0-1.5,0-2.2c0-0.3-0.1-0.6-0.4-0.5h-1C138.7,23.5,138.4,23.5,138.2,23.5z"/>
<path class="st2" d="M49.9,9.5c1.5-0.9,3.2-0.9,4.9-0.8c1.4,0.1,2.9,0.4,4,1.4c0.8,0.8,1.1,2,1,3.1c-0.1,0.4,0.2,1-0.2,1.3
	c-0.6,0.1-1.2,0-1.9,0c-0.2,0-0.5-0.1-0.5-0.4c-0.1-0.7,0.1-1.4-0.3-2c-0.4-0.8-1.3-1-2.1-1.1c-1-0.1-2.1-0.1-3,0.4
	c-0.7,0.3-1,1.1-1,1.8v9.4c0,0.6,0.2,1.2,0.7,1.6c0.7,0.5,1.6,0.5,2.4,0.6c0.8-0.1,1.8-0.1,2.5-0.6c0.5-0.3,0.7-0.9,0.7-1.4
	c0-0.9,0-1.7,0-2.6c-1.1,0-2.1,0-3.2,0c-0.3,0-0.4-0.3-0.4-0.5c0-0.5,0-0.9,0-1.4c0-0.3,0.3-0.4,0.5-0.4h5.1c0.2,0,0.5,0.1,0.5,0.4
	c0,1.6,0,3.2,0,4.9c0,1.1-0.5,2.3-1.5,3c-1.4,0.9-3.1,1-4.6,1c-1.5-0.1-3.2-0.3-4.4-1.4c-0.8-0.7-1.1-1.7-1.1-2.7c0-3.5,0-7,0-10.5
	C48.2,11.2,48.8,10,49.9,9.5z"/>
<path class="st2" d="M68.6,11.1v6.3c1.1,0,2.2,0,3.4,0c1-0.1,2-0.2,2.7-1c0.5-0.7,0.4-1.6,0.4-2.5c0-0.7,0-1.5-0.5-2
	c-0.6-0.7-1.6-0.8-2.5-0.8C70.9,11.1,69.7,11.1,68.6,11.1z M65.9,9.4c0-0.3,0.1-0.6,0.4-0.6c2,0,4,0,6,0c1.4,0,2.9,0.3,4,1.2
	c0.8,0.6,1.3,1.6,1.3,2.6s0,2,0,3c0,0.9-0.2,1.7-0.8,2.4c-0.6,0.7-1.4,1.1-2.2,1.4c1,2.3,2.1,4.6,3.1,7l-0.1,0.3
	c-0.5,0.2-1,0.1-1.5,0.1c-0.4,0-0.9,0.1-1.1-0.3c-1-2.2-2-4.5-3-6.7c-1.2,0-2.3,0-3.5,0c0,2.2,0,4.4,0,6.6c0,0.2-0.2,0.4-0.5,0.4
	c-0.6,0-1.2,0-1.8,0c-0.3,0-0.5-0.3-0.5-0.5V9.4H65.9z"/>
<path class="st2" d="M87.7,9.5c0.1-0.3,0.2-0.7,0.6-0.7c0.6,0,1.3,0,1.9,0c0.3,0,0.5,0.3,0.5,0.6c1.6,5.3,3.2,10.6,4.8,15.9
	c0.1,0.4,0.3,0.7,0.3,1.1c0,0.3-0.3,0.3-0.5,0.3c-0.6,0-1.2,0-1.8,0c-0.3,0-0.4-0.3-0.5-0.5c-0.6-2.1-1.3-4.3-1.8-6.4
	c-0.4-1.5-1.4-5.3-2-8c-0.6,2.5-0.8,3.3-1.9,7.3c-0.5,1.8-0.6,1.9-0.9,3.2l-1.2,3.9c-0.1,0.2-0.3,0.4-0.5,0.4c-0.6,0-1.1,0-1.6,0
	c-0.2,0-0.4-0.1-0.4-0.3c0-0.3,0.2-0.7,0.2-1C84.5,20.1,86.1,14.8,87.7,9.5z"/>
<path class="st2" d="M101.4,9c0.2-0.2,0.4-0.1,0.6-0.1c0.6,0,1.1,0,1.7,0c0.3,0,0.3,0.4,0.3,0.6v7.4h0.5l5.4-7.4
	c0.2-0.2,0.5-0.6,0.8-0.6c0.6,0,1.2,0,1.8,0c0.2,0,0.3,0,0.4,0.2c0,0.2-0.1,0.4-0.2,0.6l-5.8,8l5.4,6.8c0.5,0.7,1.1,1.2,1.5,2
	c-0.1,0.1-0.2,0.3-0.4,0.3c-0.7,0-1.4,0-2.1,0c-0.3,0-0.5-0.2-0.7-0.4c-2-2.5-3.9-5-5.9-7.5h-0.5v7.4c0,0.2-0.1,0.5-0.4,0.5
	c-0.6,0-1.2,0-1.9,0c-0.3,0-0.5-0.2-0.5-0.5V9.9C101.3,9.5,101.2,9.2,101.4,9z"/>
<path class="st2" d="M119,9.3c0-0.2,0.2-0.5,0.4-0.5c0.6,0,1.2,0,1.8,0c0.2,0,0.3,0.2,0.4,0.4c1.8,3.2,3.6,6.3,5.4,9.5
	c0.5,0.9,1.1,1.8,1.5,2.8c0-4,0-8.1,0-12.1c0-0.7,0.8-0.4,1.3-0.5c0.4,0.1,1.1-0.2,1.3,0.4c0,5.7,0,11.4,0,17.1
	c0,0.6-0.7,0.4-1.1,0.4c-0.4-0.1-1.1,0.2-1.4-0.3l-5.5-9.7c-0.5-0.9-1-1.7-1.4-2.7c0,4,0,8.1,0,12.1c0,0.3-0.2,0.5-0.4,0.5
	c-0.5,0-1.1,0-1.6,0c-0.3,0-0.5-0.3-0.4-0.5V9.3H119z"/>
</svg>
