<?xml version="1.0" encoding="utf-8"?>
<!-- Generator: Adobe Illustrator 22.0.1, SVG Export Plug-In . SVG Version: 6.00 Build 0)  -->
<svg version="1.1" id="Layer_1" xmlns="http://www.w3.org/2000/svg" xmlns:xlink="http://www.w3.org/1999/xlink" x="0px" y="0px"
	 viewBox="0 0 121.9 121.8" style="enable-background:new 0 0 121.9 121.8;" xml:space="preserve">
<style type="text/css">
	.st0{fill:#ECB32D;}
	.st1{fill:#63C1A0;}
	.st2{fill:#E01A59;}
	.st3{fill:#331433;}
	.st4{fill:#D62027;}
	.st5{fill:#89D3DF;}
	.st6{fill:#258B74;}
	.st7{fill:#819C3C;}
</style>
<g>
	<g>
		<path class="st0" d="M76.3,13.4c-1.6-5-6.8-7.8-11.7-6.2c-4.8,1.7-7.5,7.1-6,12.1l23.9,76.2c1.6,4.7,6.5,7.3,11.2,5.9
			c4.9-1.5,7.9-6.9,6.3-11.8C100.1,89.4,76.3,13.4,76.3,13.4z"/>
		<path class="st1" d="M39.3,25.8c-1.6-5-6.8-7.8-11.7-6.2c-4.8,1.7-7.5,7.1-6,12.1L45.6,108c1.6,4.7,6.5,7.3,11.2,5.9
			c4.9-1.5,7.9-6.9,6.3-11.8C63.1,101.9,39.3,25.8,39.3,25.8z"/>
		<path class="st2" d="M106.4,76.5c4.8-1.7,7.5-7.1,6-12.1c-1.6-5-6.8-7.8-11.7-6.2L27.2,83.1c-4.5,1.7-7.1,6.8-5.7,11.6
			c1.4,5.1,6.6,8.2,11.4,6.5C33,101.3,106.4,76.5,106.4,76.5z"/>
		<path class="st3" d="M42.5,98.1c4.8-1.6,11-3.7,17.6-5.9c-1.5-4.9-3.6-11.4-5.7-18.3l-17.6,5.9L42.5,98.1z"/>
		<path class="st4" d="M79.6,85.6c6.6-2.2,12.8-4.3,17.6-5.9c-1.5-4.9-3.6-11.4-5.7-18.3l-17.6,5.9L79.6,85.6z"/>
		<path class="st5" d="M94.4,38.1c4.8-1.7,7.5-7.1,6-12.1c-1.6-5-6.8-7.8-11.7-6.2L15.2,44.6c-4.5,1.7-7.1,6.8-5.7,11.6
			c1.4,5.1,6.6,8.2,11.4,6.5C21,62.8,94.4,38.1,94.4,38.1z"/>
		<path class="st6" d="M30.5,59.6c4.8-1.6,11-3.7,17.6-5.9c-2.1-6.9-4.2-13.3-5.7-18.3l-17.6,5.9L30.5,59.6z"/>
		<path class="st7" d="M67.5,47.2c6.6-2.2,12.8-4.3,17.6-5.9C83,34.4,80.9,28,79.4,23l-17.6,5.9L67.5,47.2z"/>
	</g>
</g>
</svg>
